<?xml version="1.0" encoding="UTF-8" standalone="no"?><svg width="798" height="652" viewBox="0 0 798 652" fill="none" xmlns="http://www.w3.org/2000/svg">
<mask id="mask0_785_4081" style="mask-type:alpha" maskUnits="userSpaceOnUse" x="0" y="0" width="816" height="816">
<circle cx="408" cy="408" r="408" fill="#D9D9D9"/>
</mask>
<g mask="url(#mask0_785_4081)">
<line x1="79.3472" y1="-30.3674" x2="79.3472" y2="846.367" stroke="black" stroke-opacity="0.3" stroke-width="0.979592"/>
<line x1="161.634" y1="-30.3674" x2="161.634" y2="846.367" stroke="black" stroke-opacity="0.3" stroke-width="0.979592"/>
<line x1="243.919" y1="-30.3674" x2="243.919" y2="846.367" stroke="black" stroke-opacity="0.3" stroke-width="0.979592"/>
<line x1="326.205" y1="-30.3674" x2="326.205" y2="846.367" stroke="black" stroke-opacity="0.3" stroke-width="0.979592"/>
<line x1="408.49" y1="-30.3674" x2="408.49" y2="846.367" stroke="black" stroke-opacity="0.3" stroke-width="0.979592"/>
<line x1="490.777" y1="-30.3674" x2="490.777" y2="846.367" stroke="black" stroke-opacity="0.3" stroke-width="0.979592"/>
<line x1="573.062" y1="-30.3674" x2="573.062" y2="846.367" stroke="black" stroke-opacity="0.3" stroke-width="0.979592"/>
<line x1="737.634" y1="-30.3674" x2="737.634" y2="846.367" stroke="black" stroke-opacity="0.3" stroke-width="0.979592"/>
<line x1="655.347" y1="-30.3674" x2="655.347" y2="846.367" stroke="black" stroke-opacity="0.3" stroke-width="0.979592"/>
<line x1="846.367" y1="79.3469" x2="-30.3675" y2="79.3468" stroke="black" stroke-opacity="0.3" stroke-width="0.979592"/>
<line x1="846.367" y1="161.633" x2="-30.3675" y2="161.633" stroke="black" stroke-opacity="0.3" stroke-width="0.979592"/>
<line x1="846.367" y1="243.918" x2="-30.3675" y2="243.918" stroke="black" stroke-opacity="0.3" stroke-width="0.979592"/>
<line x1="846.367" y1="326.204" x2="-30.3675" y2="326.204" stroke="black" stroke-opacity="0.3" stroke-width="0.979592"/>
<line x1="846.367" y1="408.49" x2="-30.3675" y2="408.49" stroke="black" stroke-opacity="0.3" stroke-width="0.979592"/>
<line x1="846.367" y1="490.776" x2="-30.3675" y2="490.775" stroke="black" stroke-opacity="0.3" stroke-width="0.979592"/>
<line x1="846.367" y1="573.061" x2="-30.3675" y2="573.061" stroke="black" stroke-opacity="0.3" stroke-width="0.979592"/>
</g>
</svg>
